<svg width="929" height="883" viewBox="0 0 929 883" fill="none" xmlns="http://www.w3.org/2000/svg">
<path d="M724.001 335.668C724.001 301.434 696.249 273.681 662.014 273.681V335.668C662.014 369.903 689.767 397.655 724.001 397.655V335.668Z" fill="url(#paint0_linear_47_98)"/>
<path d="M584.531 248.267C584.531 214.032 556.778 186.28 522.544 186.28V248.267C522.544 282.501 550.296 310.254 584.531 310.254V248.267Z" fill="url(#paint1_linear_47_98)"/>
<path d="M201.794 820.407C201.794 786.172 174.041 758.42 139.807 758.42V820.407C139.807 854.641 167.559 882.394 201.794 882.394V820.407Z" fill="url(#paint2_linear_47_98)"/>
<path d="M62.3229 733.005C62.3229 698.771 34.5704 671.018 0.335938 671.018V733.005C0.335938 767.24 28.0885 794.992 62.3229 794.992V733.005Z" fill="url(#paint3_linear_47_98)"/>
<path d="M457.457 565.02C457.457 530.786 429.704 503.033 395.47 503.033V565.021C395.47 599.255 423.222 627.007 457.457 627.007V565.02Z" fill="url(#paint4_linear_47_98)"/>
<path d="M317.986 477.619C317.986 443.384 290.234 415.632 255.999 415.632V477.619C255.999 511.853 283.752 539.606 317.986 539.606V477.619Z" fill="url(#paint5_linear_47_98)"/>
<path d="M665.114 245.787C665.114 230.382 677.602 217.893 693.008 217.893C708.413 217.893 720.902 230.382 720.902 245.787C720.902 261.193 708.413 273.681 693.008 273.681C677.602 273.681 665.114 261.193 665.114 245.787Z" fill="url(#paint6_linear_47_98)"/>
<path d="M525.643 158.385C525.643 142.98 538.132 130.491 553.537 130.491C568.943 130.491 581.431 142.98 581.431 158.385C581.431 173.791 568.943 186.28 553.537 186.28C538.132 186.28 525.643 173.791 525.643 158.385Z" fill="url(#paint7_linear_47_98)"/>
<path d="M142.906 730.526C142.906 715.12 155.395 702.632 170.8 702.632C186.206 702.632 198.694 715.12 198.694 730.526C198.694 745.931 186.206 758.42 170.8 758.42C155.395 758.42 142.906 745.931 142.906 730.526Z" fill="url(#paint8_linear_47_98)"/>
<path d="M3.43525 643.124C3.43525 627.719 15.9239 615.23 31.3294 615.23C46.7349 615.23 59.2236 627.719 59.2236 643.124C59.2236 658.53 46.7349 671.018 31.3294 671.018C15.9239 671.018 3.43525 658.53 3.43525 643.124Z" fill="url(#paint9_linear_47_98)"/>
<path d="M398.569 475.139C398.569 459.734 411.058 447.245 426.463 447.245C441.869 447.245 454.358 459.734 454.358 475.139C454.358 490.545 441.869 503.033 426.463 503.033C411.058 503.033 398.569 490.545 398.569 475.139Z" fill="url(#paint10_linear_47_98)"/>
<path d="M259.099 387.737C259.099 372.332 271.587 359.843 286.993 359.843C302.398 359.843 314.887 372.332 314.887 387.737C314.887 403.143 302.398 415.632 286.993 415.632C271.587 415.632 259.099 403.143 259.099 387.737Z" fill="url(#paint11_linear_47_98)"/>
<path d="M730.2 253.225C730.2 218.991 757.953 191.239 792.187 191.239V335.668C792.187 369.903 764.435 397.655 730.2 397.655V253.225Z" fill="url(#paint12_linear_47_98)"/>
<path d="M590.729 165.824C590.729 131.589 618.482 103.837 652.716 103.837V248.267C652.716 282.501 624.964 310.254 590.729 310.254V165.824Z" fill="url(#paint13_linear_47_98)"/>
<path d="M207.992 737.964C207.992 703.73 235.745 675.977 269.979 675.977V820.407C269.979 854.641 242.227 882.394 207.992 882.394V737.964Z" fill="url(#paint14_linear_47_98)"/>
<path d="M68.5217 650.562C68.5217 616.328 96.2742 588.575 130.509 588.575V733.005C130.509 767.24 102.756 794.992 68.5217 794.992V650.562Z" fill="url(#paint15_linear_47_98)"/>
<path d="M463.656 482.578C463.656 448.343 491.408 420.591 525.643 420.591V565.02C525.643 599.255 497.89 627.007 463.656 627.007V482.578Z" fill="url(#paint16_linear_47_98)"/>
<path d="M324.185 395.176C324.185 360.941 351.938 333.189 386.172 333.189V477.619C386.172 511.853 358.42 539.606 324.185 539.606V395.176Z" fill="url(#paint17_linear_47_98)"/>
<path d="M798.386 149.707C798.386 115.473 826.138 87.7202 860.373 87.7202V232.15C860.373 266.384 832.62 294.137 798.386 294.137V149.707Z" fill="url(#paint18_linear_47_98)"/>
<path d="M658.915 62.3053C658.915 28.0708 686.667 0.318359 720.902 0.318359V144.748C720.902 178.983 693.149 206.735 658.915 206.735V62.3053Z" fill="url(#paint19_linear_47_98)"/>
<path d="M276.178 634.446C276.178 600.211 303.93 572.459 338.165 572.459V716.889C338.165 751.123 310.412 778.875 276.178 778.875V634.446Z" fill="url(#paint20_linear_47_98)"/>
<path d="M136.707 547.044C136.707 512.81 164.46 485.057 198.694 485.057V629.487C198.694 663.721 170.942 691.474 136.707 691.474V547.044Z" fill="url(#paint21_linear_47_98)"/>
<path d="M531.842 379.059C531.842 344.825 559.594 317.072 593.829 317.072V461.502C593.829 495.737 566.076 523.489 531.842 523.489V379.059Z" fill="url(#paint22_linear_47_98)"/>
<path d="M392.371 291.658C392.371 257.423 420.124 229.671 454.358 229.671V374.1C454.358 408.335 426.606 436.087 392.371 436.087V291.658Z" fill="url(#paint23_linear_47_98)"/>
<path d="M869.671 239.588C869.671 224.183 882.159 211.694 897.565 211.694C912.97 211.694 925.459 224.183 925.459 239.588C925.459 254.994 912.97 267.482 897.565 267.482C882.159 267.482 869.671 254.994 869.671 239.588Z" fill="url(#paint24_linear_47_98)"/>
<path d="M730.2 152.187C730.2 136.781 742.689 124.292 758.094 124.292C773.5 124.292 785.988 136.781 785.988 152.187C785.988 167.592 773.5 180.081 758.094 180.081C742.689 180.081 730.2 167.592 730.2 152.187Z" fill="url(#paint25_linear_47_98)"/>
<path d="M347.463 724.327C347.463 708.922 359.951 696.433 375.357 696.433C390.763 696.433 403.251 708.922 403.251 724.327C403.251 739.733 390.763 752.221 375.357 752.221C359.951 752.221 347.463 739.733 347.463 724.327Z" fill="url(#paint26_linear_47_98)"/>
<path d="M207.992 636.925C207.992 621.52 220.481 609.031 235.886 609.031C251.292 609.031 263.78 621.52 263.78 636.925C263.78 652.331 251.292 664.819 235.886 664.819C220.481 664.819 207.992 652.331 207.992 636.925Z" fill="url(#paint27_linear_47_98)"/>
<path d="M603.127 468.941C603.127 453.535 615.615 441.046 631.021 441.046C646.426 441.046 658.915 453.535 658.915 468.941C658.915 484.346 646.426 496.835 631.021 496.835C615.615 496.835 603.127 484.346 603.127 468.941Z" fill="url(#paint28_linear_47_98)"/>
<path d="M463.656 381.539C463.656 366.133 476.145 353.645 491.55 353.645C506.956 353.645 519.444 366.133 519.444 381.539C519.444 396.944 506.956 409.433 491.55 409.433C476.145 409.433 463.656 396.944 463.656 381.539Z" fill="url(#paint29_linear_47_98)"/>
<path d="M928.558 149.707C928.558 115.473 900.806 87.7202 866.571 87.7202V149.707C866.571 183.942 894.324 211.694 928.558 211.694V149.707Z" fill="url(#paint30_linear_47_98)"/>
<path d="M789.088 62.3053C789.088 28.0709 761.335 0.318359 727.101 0.318359V62.3054C727.101 96.5399 754.853 124.292 789.088 124.292V62.3053Z" fill="url(#paint31_linear_47_98)"/>
<path d="M406.351 634.446C406.351 600.211 378.598 572.459 344.364 572.459V634.446C344.364 668.68 372.116 696.433 406.351 696.433V634.446Z" fill="url(#paint32_linear_47_98)"/>
<path d="M266.88 547.044C266.88 512.81 239.127 485.057 204.893 485.057V547.044C204.893 581.279 232.645 609.031 266.88 609.031V547.044Z" fill="url(#paint33_linear_47_98)"/>
<path d="M662.014 379.059C662.014 344.825 634.262 317.072 600.027 317.072V379.059C600.027 413.294 627.78 441.046 662.014 441.046V379.059Z" fill="url(#paint34_linear_47_98)"/>
<path d="M522.544 291.658C522.544 257.423 494.791 229.671 460.557 229.671V291.658C460.557 325.892 488.309 353.645 522.544 353.645V291.658Z" fill="url(#paint35_linear_47_98)"/>
<defs>
<linearGradient id="paint0_linear_47_98" x1="425.406" y1="159.457" x2="425.406" y2="652.623" gradientUnits="userSpaceOnUse">
<stop stop-color="#A65D15"/>
<stop offset="1" stop-color="#412B15"/>
</linearGradient>
<linearGradient id="paint1_linear_47_98" x1="425.406" y1="159.457" x2="425.406" y2="652.623" gradientUnits="userSpaceOnUse">
<stop stop-color="#A65D15"/>
<stop offset="1" stop-color="#412B15"/>
</linearGradient>
<linearGradient id="paint2_linear_47_98" x1="425.406" y1="159.457" x2="425.406" y2="652.623" gradientUnits="userSpaceOnUse">
<stop stop-color="#A65D15"/>
<stop offset="1" stop-color="#412B15"/>
</linearGradient>
<linearGradient id="paint3_linear_47_98" x1="425.406" y1="159.457" x2="425.406" y2="652.623" gradientUnits="userSpaceOnUse">
<stop stop-color="#A65D15"/>
<stop offset="1" stop-color="#412B15"/>
</linearGradient>
<linearGradient id="paint4_linear_47_98" x1="425.406" y1="159.457" x2="425.406" y2="652.623" gradientUnits="userSpaceOnUse">
<stop stop-color="#A65D15"/>
<stop offset="1" stop-color="#412B15"/>
</linearGradient>
<linearGradient id="paint5_linear_47_98" x1="425.406" y1="159.457" x2="425.406" y2="652.623" gradientUnits="userSpaceOnUse">
<stop stop-color="#A65D15"/>
<stop offset="1" stop-color="#412B15"/>
</linearGradient>
<linearGradient id="paint6_linear_47_98" x1="425.406" y1="159.457" x2="425.406" y2="652.623" gradientUnits="userSpaceOnUse">
<stop stop-color="#A65D15"/>
<stop offset="1" stop-color="#412B15"/>
</linearGradient>
<linearGradient id="paint7_linear_47_98" x1="425.406" y1="159.457" x2="425.406" y2="652.623" gradientUnits="userSpaceOnUse">
<stop stop-color="#A65D15"/>
<stop offset="1" stop-color="#412B15"/>
</linearGradient>
<linearGradient id="paint8_linear_47_98" x1="425.406" y1="159.457" x2="425.406" y2="652.623" gradientUnits="userSpaceOnUse">
<stop stop-color="#A65D15"/>
<stop offset="1" stop-color="#412B15"/>
</linearGradient>
<linearGradient id="paint9_linear_47_98" x1="425.406" y1="159.457" x2="425.406" y2="652.623" gradientUnits="userSpaceOnUse">
<stop stop-color="#A65D15"/>
<stop offset="1" stop-color="#412B15"/>
</linearGradient>
<linearGradient id="paint10_linear_47_98" x1="425.406" y1="159.457" x2="425.406" y2="652.623" gradientUnits="userSpaceOnUse">
<stop stop-color="#A65D15"/>
<stop offset="1" stop-color="#412B15"/>
</linearGradient>
<linearGradient id="paint11_linear_47_98" x1="425.406" y1="159.457" x2="425.406" y2="652.623" gradientUnits="userSpaceOnUse">
<stop stop-color="#A65D15"/>
<stop offset="1" stop-color="#412B15"/>
</linearGradient>
<linearGradient id="paint12_linear_47_98" x1="425.406" y1="159.457" x2="425.406" y2="652.623" gradientUnits="userSpaceOnUse">
<stop stop-color="#A65D15"/>
<stop offset="1" stop-color="#412B15"/>
</linearGradient>
<linearGradient id="paint13_linear_47_98" x1="425.406" y1="159.457" x2="425.406" y2="652.623" gradientUnits="userSpaceOnUse">
<stop stop-color="#A65D15"/>
<stop offset="1" stop-color="#412B15"/>
</linearGradient>
<linearGradient id="paint14_linear_47_98" x1="425.406" y1="159.457" x2="425.406" y2="652.623" gradientUnits="userSpaceOnUse">
<stop stop-color="#A65D15"/>
<stop offset="1" stop-color="#412B15"/>
</linearGradient>
<linearGradient id="paint15_linear_47_98" x1="425.406" y1="159.457" x2="425.406" y2="652.623" gradientUnits="userSpaceOnUse">
<stop stop-color="#A65D15"/>
<stop offset="1" stop-color="#412B15"/>
</linearGradient>
<linearGradient id="paint16_linear_47_98" x1="425.406" y1="159.457" x2="425.406" y2="652.623" gradientUnits="userSpaceOnUse">
<stop stop-color="#A65D15"/>
<stop offset="1" stop-color="#412B15"/>
</linearGradient>
<linearGradient id="paint17_linear_47_98" x1="425.406" y1="159.457" x2="425.406" y2="652.623" gradientUnits="userSpaceOnUse">
<stop stop-color="#A65D15"/>
<stop offset="1" stop-color="#412B15"/>
</linearGradient>
<linearGradient id="paint18_linear_47_98" x1="425.406" y1="159.457" x2="425.406" y2="652.623" gradientUnits="userSpaceOnUse">
<stop stop-color="#A65D15"/>
<stop offset="1" stop-color="#412B15"/>
</linearGradient>
<linearGradient id="paint19_linear_47_98" x1="425.406" y1="159.457" x2="425.406" y2="652.623" gradientUnits="userSpaceOnUse">
<stop stop-color="#A65D15"/>
<stop offset="1" stop-color="#412B15"/>
</linearGradient>
<linearGradient id="paint20_linear_47_98" x1="425.406" y1="159.457" x2="425.406" y2="652.623" gradientUnits="userSpaceOnUse">
<stop stop-color="#A65D15"/>
<stop offset="1" stop-color="#412B15"/>
</linearGradient>
<linearGradient id="paint21_linear_47_98" x1="425.406" y1="159.457" x2="425.406" y2="652.623" gradientUnits="userSpaceOnUse">
<stop stop-color="#A65D15"/>
<stop offset="1" stop-color="#412B15"/>
</linearGradient>
<linearGradient id="paint22_linear_47_98" x1="425.406" y1="159.457" x2="425.406" y2="652.623" gradientUnits="userSpaceOnUse">
<stop stop-color="#A65D15"/>
<stop offset="1" stop-color="#412B15"/>
</linearGradient>
<linearGradient id="paint23_linear_47_98" x1="425.406" y1="159.457" x2="425.406" y2="652.623" gradientUnits="userSpaceOnUse">
<stop stop-color="#A65D15"/>
<stop offset="1" stop-color="#412B15"/>
</linearGradient>
<linearGradient id="paint24_linear_47_98" x1="425.406" y1="159.457" x2="425.406" y2="652.623" gradientUnits="userSpaceOnUse">
<stop stop-color="#A65D15"/>
<stop offset="1" stop-color="#412B15"/>
</linearGradient>
<linearGradient id="paint25_linear_47_98" x1="425.406" y1="159.457" x2="425.406" y2="652.623" gradientUnits="userSpaceOnUse">
<stop stop-color="#A65D15"/>
<stop offset="1" stop-color="#412B15"/>
</linearGradient>
<linearGradient id="paint26_linear_47_98" x1="425.406" y1="159.457" x2="425.406" y2="652.623" gradientUnits="userSpaceOnUse">
<stop stop-color="#A65D15"/>
<stop offset="1" stop-color="#412B15"/>
</linearGradient>
<linearGradient id="paint27_linear_47_98" x1="425.406" y1="159.457" x2="425.406" y2="652.623" gradientUnits="userSpaceOnUse">
<stop stop-color="#A65D15"/>
<stop offset="1" stop-color="#412B15"/>
</linearGradient>
<linearGradient id="paint28_linear_47_98" x1="425.406" y1="159.457" x2="425.406" y2="652.623" gradientUnits="userSpaceOnUse">
<stop stop-color="#A65D15"/>
<stop offset="1" stop-color="#412B15"/>
</linearGradient>
<linearGradient id="paint29_linear_47_98" x1="425.406" y1="159.457" x2="425.406" y2="652.623" gradientUnits="userSpaceOnUse">
<stop stop-color="#A65D15"/>
<stop offset="1" stop-color="#412B15"/>
</linearGradient>
<linearGradient id="paint30_linear_47_98" x1="425.406" y1="159.457" x2="425.406" y2="652.623" gradientUnits="userSpaceOnUse">
<stop stop-color="#A65D15"/>
<stop offset="1" stop-color="#412B15"/>
</linearGradient>
<linearGradient id="paint31_linear_47_98" x1="425.406" y1="159.457" x2="425.406" y2="652.623" gradientUnits="userSpaceOnUse">
<stop stop-color="#A65D15"/>
<stop offset="1" stop-color="#412B15"/>
</linearGradient>
<linearGradient id="paint32_linear_47_98" x1="425.406" y1="159.457" x2="425.406" y2="652.623" gradientUnits="userSpaceOnUse">
<stop stop-color="#A65D15"/>
<stop offset="1" stop-color="#412B15"/>
</linearGradient>
<linearGradient id="paint33_linear_47_98" x1="425.406" y1="159.457" x2="425.406" y2="652.623" gradientUnits="userSpaceOnUse">
<stop stop-color="#A65D15"/>
<stop offset="1" stop-color="#412B15"/>
</linearGradient>
<linearGradient id="paint34_linear_47_98" x1="425.406" y1="159.457" x2="425.406" y2="652.623" gradientUnits="userSpaceOnUse">
<stop stop-color="#A65D15"/>
<stop offset="1" stop-color="#412B15"/>
</linearGradient>
<linearGradient id="paint35_linear_47_98" x1="425.406" y1="159.457" x2="425.406" y2="652.623" gradientUnits="userSpaceOnUse">
<stop stop-color="#A65D15"/>
<stop offset="1" stop-color="#412B15"/>
</linearGradient>
</defs>
</svg>
