<svg width="431" height="501" viewBox="0 0 431 501" fill="none" xmlns="http://www.w3.org/2000/svg">
<path d="M100.154 400.792C100.154 345.563 55.3823 300.792 0.153809 300.792V400.792C0.153809 456.02 44.9253 500.792 100.154 500.792V400.792Z" fill="#A65D15"/>
<path d="M5.15381 255.792C5.15381 230.939 25.301 210.792 50.1538 210.792C75.0066 210.792 95.1538 230.939 95.1538 255.792C95.1538 280.645 75.0066 300.792 50.1538 300.792C25.301 300.792 5.15381 280.645 5.15381 255.792Z" fill="#A65D15"/>
<path d="M110.154 267.792C110.154 212.563 154.925 167.792 210.154 167.792V400.792C210.154 456.02 165.382 500.792 110.154 500.792V267.792Z" fill="#A65D15"/>
<path d="M220.154 100.792C220.154 45.5633 264.925 0.791748 320.154 0.791748V233.792C320.154 289.02 275.382 333.792 220.154 333.792V100.792Z" fill="#A65D15"/>
<path d="M335.154 245.792C335.154 220.939 355.301 200.792 380.154 200.792C405.007 200.792 425.154 220.939 425.154 245.792C425.154 270.645 405.007 290.792 380.154 290.792C355.301 290.792 335.154 270.645 335.154 245.792Z" fill="#A65D15"/>
<path d="M430.154 100.792C430.154 45.5633 385.382 0.791748 330.154 0.791748V100.792C330.154 156.02 374.925 200.792 430.154 200.792V100.792Z" fill="#A65D15"/>
</svg>
